<svg xmlns="http://www.w3.org/2000/svg" xmlns:xlink="http://www.w3.org/1999/xlink" width="500" zoomAndPan="magnify" viewBox="0 0 375 374.999991" height="500" preserveAspectRatio="xMidYMid meet" version="1.0"><defs><clipPath id="bb7d307b31"><path d="M 22.5 0 L 352.5 0 C 358.46875 0 364.191406 2.371094 368.410156 6.589844 C 372.628906 10.808594 375 16.53125 375 22.5 L 375 352.5 C 375 358.46875 372.628906 364.191406 368.410156 368.410156 C 364.191406 372.628906 358.46875 375 352.5 375 L 22.5 375 C 10.074219 375 0 364.925781 0 352.5 L 0 22.5 C 0 10.074219 10.074219 0 22.5 0 Z M 22.5 0 " clip-rule="nonzero"/></clipPath><clipPath id="e3bff1d6a7"><path d="M 0 0 L 375 0 L 375 375 L 0 375 Z M 0 0 " clip-rule="nonzero"/></clipPath><clipPath id="6ffd7f8e9b"><path d="M 22.5 0 L 352.5 0 C 358.46875 0 364.191406 2.371094 368.410156 6.589844 C 372.628906 10.808594 375 16.53125 375 22.5 L 375 352.5 C 375 358.46875 372.628906 364.191406 368.410156 368.410156 C 364.191406 372.628906 358.46875 375 352.5 375 L 22.5 375 C 10.074219 375 0 364.925781 0 352.5 L 0 22.5 C 0 10.074219 10.074219 0 22.5 0 Z M 22.5 0 " clip-rule="nonzero"/></clipPath><clipPath id="6a4b874aac"><rect x="0" width="375" y="0" height="375"/></clipPath><clipPath id="0431e9c9ac"><path d="M 71 75 L 304 75 L 304 299.996094 L 71 299.996094 Z M 71 75 " clip-rule="nonzero"/></clipPath><clipPath id="efa62911b7"><path d="M 71 75 L 304 75 L 304 299.996094 L 71 299.996094 Z M 71 75 " clip-rule="nonzero"/></clipPath></defs><g clip-path="url(#bb7d307b31)"><g transform="matrix(1, 0, 0, 1, 0, 0)"><g clip-path="url(#6a4b874aac)"><g clip-path="url(#e3bff1d6a7)"><g clip-path="url(#6ffd7f8e9b)"><rect x="-82.5" width="540" fill="#f2f5f7" height="539.999987" y="-82.499998" fill-opacity="1"/></g></g></g></g></g><g clip-path="url(#0431e9c9ac)"><path fill="#1f2937" d="M 289.019531 75.535156 C 289.5 75.511719 289.980469 75.515625 290.460938 75.539062 C 290.941406 75.566406 291.417969 75.617188 291.890625 75.695312 C 292.367188 75.769531 292.835938 75.871094 293.300781 75.996094 C 293.765625 76.121094 294.222656 76.269531 294.667969 76.441406 C 295.117188 76.613281 295.558594 76.804688 295.984375 77.023438 C 296.414062 77.242188 296.832031 77.480469 297.234375 77.742188 C 297.636719 78.003906 298.027344 78.285156 298.402344 78.585938 C 298.777344 78.886719 299.132812 79.207031 299.476562 79.542969 C 299.816406 79.882812 300.140625 80.238281 300.445312 80.609375 C 300.75 80.980469 301.035156 81.367188 301.296875 81.769531 C 301.5625 82.171875 301.804688 82.585938 302.027344 83.011719 C 302.25 83.4375 302.445312 83.875 302.625 84.320312 C 302.800781 84.769531 302.953125 85.222656 303.082031 85.6875 C 303.210938 86.152344 303.3125 86.621094 303.394531 87.09375 C 303.472656 87.566406 303.527344 88.042969 303.558594 88.523438 C 303.589844 89.003906 303.597656 89.484375 303.578125 89.964844 C 303.902344 102.121094 303.933594 114.3125 303.542969 126.46875 C 303.558594 126.949219 303.550781 127.429688 303.515625 127.910156 C 303.480469 128.390625 303.417969 128.867188 303.335938 129.339844 C 303.25 129.8125 303.140625 130.28125 303.007812 130.742188 C 302.871094 131.207031 302.714844 131.660156 302.535156 132.105469 C 302.351562 132.550781 302.148438 132.984375 301.921875 133.410156 C 301.695312 133.835938 301.445312 134.246094 301.175781 134.644531 C 300.90625 135.042969 300.617188 135.425781 300.308594 135.792969 C 299.996094 136.160156 299.667969 136.511719 299.324219 136.84375 C 298.976562 137.179688 298.613281 137.492188 298.234375 137.789062 C 297.855469 138.085938 297.460938 138.359375 297.050781 138.613281 C 296.644531 138.867188 296.222656 139.101562 295.789062 139.3125 C 295.359375 139.523438 294.914062 139.710938 294.464844 139.875 C 294.011719 140.039062 293.550781 140.179688 293.085938 140.292969 C 292.617188 140.410156 292.144531 140.503906 291.671875 140.570312 C 291.195312 140.636719 290.714844 140.679688 290.234375 140.695312 C 289.753906 140.710938 289.273438 140.703125 288.792969 140.667969 C 277.023438 140.894531 265.289062 140.894531 253.519531 140.703125 C 253.015625 140.726562 252.511719 140.726562 252.007812 140.699219 C 251.503906 140.671875 251 140.617188 250.5 140.535156 C 250.003906 140.453125 249.511719 140.347656 249.023438 140.214844 C 248.535156 140.082031 248.058594 139.921875 247.585938 139.738281 C 247.117188 139.554688 246.65625 139.347656 246.207031 139.117188 C 245.757812 138.882812 245.324219 138.628906 244.902344 138.351562 C 244.480469 138.070312 244.074219 137.773438 243.6875 137.449219 C 243.296875 137.128906 242.925781 136.789062 242.570312 136.429688 C 242.21875 136.066406 241.882812 135.6875 241.570312 135.292969 C 241.257812 134.898438 240.964844 134.484375 240.695312 134.058594 C 240.425781 133.632812 240.175781 133.191406 239.953125 132.738281 C 239.730469 132.285156 239.53125 131.824219 239.355469 131.351562 C 239.179688 130.875 239.03125 130.394531 238.910156 129.902344 C 238.785156 129.414062 238.6875 128.917969 238.617188 128.417969 C 238.546875 127.917969 238.5 127.417969 238.484375 126.914062 C 238.464844 126.40625 238.472656 125.902344 238.507812 125.398438 C 238.410156 121.636719 238.476562 117.878906 238.507812 114.183594 L 185.695312 114.183594 L 185.695312 182.75 L 238.507812 182.75 C 238.476562 180.96875 238.476562 179.21875 238.476562 177.433594 C 238.191406 175.164062 238.203125 172.894531 238.507812 170.625 L 238.507812 170.011719 C 238.472656 169.507812 238.464844 169.003906 238.484375 168.5 C 238.5 167.996094 238.546875 167.492188 238.617188 166.992188 C 238.6875 166.492188 238.785156 166 238.910156 165.507812 C 239.035156 165.019531 239.183594 164.539062 239.359375 164.066406 C 239.53125 163.59375 239.730469 163.128906 239.957031 162.675781 C 240.179688 162.222656 240.425781 161.785156 240.695312 161.359375 C 240.96875 160.933594 241.257812 160.523438 241.574219 160.125 C 241.886719 159.730469 242.21875 159.355469 242.574219 158.992188 C 242.929688 158.632812 243.300781 158.292969 243.691406 157.972656 C 244.078125 157.652344 244.484375 157.355469 244.90625 157.078125 C 245.328125 156.796875 245.761719 156.542969 246.210938 156.3125 C 246.660156 156.082031 247.121094 155.875 247.589844 155.691406 C 248.058594 155.507812 248.539062 155.351562 249.027344 155.21875 C 249.511719 155.085938 250.007812 154.980469 250.503906 154.902344 C 251.003906 154.820312 251.503906 154.765625 252.007812 154.742188 C 252.511719 154.714844 253.015625 154.714844 253.519531 154.738281 C 265.289062 154.511719 277.023438 154.511719 288.792969 154.738281 C 289.273438 154.707031 289.753906 154.699219 290.234375 154.714844 C 290.714844 154.730469 291.195312 154.773438 291.671875 154.839844 C 292.144531 154.90625 292.617188 155 293.085938 155.113281 C 293.550781 155.230469 294.011719 155.371094 294.464844 155.535156 C 294.914062 155.699219 295.359375 155.886719 295.789062 156.097656 C 296.222656 156.308594 296.644531 156.539062 297.050781 156.796875 C 297.460938 157.050781 297.855469 157.324219 298.234375 157.621094 C 298.613281 157.914062 298.976562 158.230469 299.324219 158.5625 C 299.667969 158.898438 299.996094 159.25 300.308594 159.617188 C 300.617188 159.984375 300.90625 160.367188 301.175781 160.765625 C 301.445312 161.164062 301.695312 161.574219 301.921875 162 C 302.148438 162.425781 302.351562 162.859375 302.535156 163.304688 C 302.714844 163.75 302.871094 164.203125 303.007812 164.667969 C 303.140625 165.128906 303.25 165.597656 303.335938 166.070312 C 303.417969 166.542969 303.480469 167.019531 303.515625 167.5 C 303.550781 167.980469 303.558594 168.460938 303.542969 168.941406 C 303.570312 169.230469 303.582031 169.523438 303.578125 169.816406 L 303.578125 169.914062 C 303.640625 172.054688 303.640625 174.226562 303.675781 176.398438 C 303.738281 180.15625 303.835938 183.917969 303.835938 187.679688 C 303.835938 191.441406 303.738281 195.203125 303.675781 198.960938 C 303.640625 201.132812 303.640625 203.273438 303.578125 205.445312 L 303.578125 205.542969 C 303.582031 205.824219 303.574219 206.105469 303.542969 206.386719 C 303.558594 206.867188 303.550781 207.347656 303.515625 207.828125 C 303.480469 208.308594 303.421875 208.785156 303.335938 209.261719 C 303.25 209.734375 303.140625 210.203125 303.007812 210.664062 C 302.875 211.128906 302.71875 211.582031 302.535156 212.027344 C 302.355469 212.472656 302.152344 212.910156 301.925781 213.332031 C 301.699219 213.757812 301.449219 214.171875 301.179688 214.570312 C 300.910156 214.96875 300.621094 215.351562 300.308594 215.71875 C 300 216.089844 299.671875 216.441406 299.324219 216.773438 C 298.980469 217.109375 298.617188 217.425781 298.238281 217.722656 C 297.859375 218.015625 297.464844 218.292969 297.054688 218.546875 C 296.648438 218.804688 296.226562 219.035156 295.792969 219.25 C 295.363281 219.460938 294.917969 219.648438 294.46875 219.8125 C 294.015625 219.976562 293.554688 220.117188 293.085938 220.234375 C 292.621094 220.351562 292.148438 220.445312 291.671875 220.511719 C 291.195312 220.582031 290.714844 220.625 290.234375 220.640625 C 289.753906 220.660156 289.273438 220.652344 288.792969 220.617188 C 277.023438 220.847656 265.289062 220.847656 253.519531 220.617188 C 253.015625 220.644531 252.511719 220.644531 252.007812 220.617188 C 251.503906 220.589844 251.003906 220.539062 250.503906 220.457031 C 250.007812 220.378906 249.511719 220.273438 249.027344 220.140625 C 248.539062 220.007812 248.058594 219.851562 247.589844 219.667969 C 247.121094 219.484375 246.660156 219.277344 246.210938 219.046875 C 245.761719 218.816406 245.328125 218.558594 244.90625 218.28125 C 244.484375 218.003906 244.078125 217.707031 243.691406 217.386719 C 243.300781 217.066406 242.929688 216.726562 242.574219 216.363281 C 242.21875 216.003906 241.886719 215.628906 241.574219 215.234375 C 241.257812 214.835938 240.96875 214.425781 240.695312 214 C 240.425781 213.574219 240.179688 213.136719 239.957031 212.683594 C 239.730469 212.230469 239.53125 211.765625 239.359375 211.292969 C 239.183594 210.820312 239.035156 210.339844 238.910156 209.851562 C 238.785156 209.359375 238.6875 208.867188 238.617188 208.367188 C 238.546875 207.867188 238.5 207.363281 238.484375 206.859375 C 238.464844 206.355469 238.472656 205.851562 238.507812 205.347656 L 238.507812 204.734375 C 238.203125 202.453125 238.191406 200.171875 238.476562 197.890625 C 238.476562 196.140625 238.476562 194.359375 238.507812 192.609375 L 185.695312 192.609375 L 185.695312 261.144531 L 238.507812 261.144531 C 238.476562 257.480469 238.410156 253.71875 238.507812 249.925781 C 238.472656 249.425781 238.464844 248.921875 238.484375 248.414062 C 238.5 247.910156 238.546875 247.410156 238.617188 246.910156 C 238.6875 246.410156 238.785156 245.914062 238.910156 245.425781 C 239.035156 244.9375 239.183594 244.457031 239.359375 243.984375 C 239.53125 243.507812 239.730469 243.046875 239.957031 242.59375 C 240.179688 242.140625 240.425781 241.703125 240.695312 241.277344 C 240.96875 240.851562 241.257812 240.4375 241.574219 240.042969 C 241.886719 239.648438 242.21875 239.269531 242.574219 238.910156 C 242.929688 238.550781 243.300781 238.210938 243.691406 237.890625 C 244.078125 237.570312 244.484375 237.269531 244.90625 236.992188 C 245.328125 236.714844 245.761719 236.460938 246.210938 236.230469 C 246.660156 236 247.121094 235.792969 247.589844 235.609375 C 248.058594 235.425781 248.539062 235.269531 249.027344 235.136719 C 249.511719 235.003906 250.007812 234.898438 250.503906 234.816406 C 251.003906 234.738281 251.503906 234.683594 252.007812 234.65625 C 252.511719 234.632812 253.015625 234.628906 253.519531 234.65625 C 265.289062 234.429688 277.023438 234.429688 288.792969 234.65625 C 289.273438 234.625 289.753906 234.617188 290.234375 234.636719 C 290.714844 234.652344 291.195312 234.695312 291.671875 234.761719 C 292.148438 234.832031 292.621094 234.921875 293.085938 235.039062 C 293.554688 235.15625 294.015625 235.296875 294.46875 235.464844 C 294.917969 235.628906 295.363281 235.816406 295.792969 236.027344 C 296.226562 236.238281 296.648438 236.472656 297.054688 236.726562 C 297.464844 236.984375 297.859375 237.257812 298.238281 237.554688 C 298.617188 237.851562 298.980469 238.167969 299.324219 238.5 C 299.671875 238.835938 300 239.1875 300.308594 239.554688 C 300.621094 239.925781 300.910156 240.308594 301.179688 240.707031 C 301.449219 241.105469 301.699219 241.519531 301.925781 241.941406 C 302.152344 242.367188 302.355469 242.800781 302.535156 243.25 C 302.71875 243.695312 302.875 244.148438 303.007812 244.613281 C 303.140625 245.074219 303.25 245.542969 303.335938 246.015625 C 303.421875 246.492188 303.480469 246.96875 303.515625 247.449219 C 303.550781 247.929688 303.558594 248.410156 303.542969 248.890625 C 303.933594 261.046875 303.902344 273.207031 303.578125 285.363281 C 303.597656 285.84375 303.589844 286.324219 303.5625 286.804688 C 303.53125 287.285156 303.476562 287.761719 303.398438 288.234375 C 303.316406 288.710938 303.214844 289.179688 303.085938 289.640625 C 302.957031 290.105469 302.804688 290.558594 302.628906 291.007812 C 302.453125 291.457031 302.253906 291.890625 302.03125 292.320312 C 301.8125 292.746094 301.570312 293.160156 301.304688 293.5625 C 301.039062 293.964844 300.753906 294.351562 300.449219 294.722656 C 300.144531 295.09375 299.824219 295.449219 299.480469 295.789062 C 299.140625 296.128906 298.78125 296.445312 298.40625 296.75 C 298.03125 297.050781 297.644531 297.332031 297.238281 297.589844 C 296.835938 297.851562 296.417969 298.089844 295.988281 298.308594 C 295.5625 298.527344 295.121094 298.71875 294.671875 298.890625 C 294.222656 299.0625 293.765625 299.210938 293.300781 299.335938 C 292.839844 299.460938 292.367188 299.5625 291.894531 299.636719 C 291.417969 299.710938 290.941406 299.761719 290.460938 299.789062 C 289.980469 299.8125 289.5 299.816406 289.019531 299.789062 C 277.058594 300.050781 265.09375 300.082031 253.128906 299.789062 C 251.304688 299.8125 249.535156 299.511719 247.820312 298.886719 C 246.105469 298.261719 244.558594 297.351562 243.175781 296.160156 C 241.773438 294.578125 240.671875 292.808594 239.875 290.851562 C 239.074219 288.894531 238.617188 286.859375 238.507812 284.746094 C 238.203125 282.445312 238.191406 280.144531 238.476562 277.839844 C 238.476562 275.894531 238.476562 273.953125 238.507812 272.007812 L 238.507812 270.871094 L 181.773438 270.871094 C 180.710938 270.867188 179.761719 270.542969 178.917969 269.898438 C 178.472656 269.742188 178.0625 269.519531 177.6875 269.230469 C 177.3125 268.941406 176.996094 268.601562 176.730469 268.210938 C 176.464844 267.820312 176.265625 267.398438 176.136719 266.945312 C 176.003906 266.488281 175.949219 266.027344 175.96875 265.554688 L 175.96875 192.609375 L 136.414062 192.609375 L 136.414062 195.039062 C 136.449219 198.28125 136.449219 201.457031 136.414062 204.601562 C 136.253906 214.71875 130.773438 220.488281 120.820312 220.617188 C 109.472656 220.78125 98.136719 220.78125 86.8125 220.617188 C 77.054688 220.457031 71.476562 215.011719 71.28125 205.1875 L 71.28125 204.214844 L 71.25 204.183594 C 71.25 202.691406 71.25 201.199219 71.21875 199.707031 C 71.152344 195.6875 71.105469 191.710938 71.105469 187.679688 C 71.105469 183.644531 71.140625 179.640625 71.203125 175.617188 C 71.238281 174.160156 71.238281 172.667969 71.238281 171.175781 C 71.238281 171.144531 71.269531 171.144531 71.269531 171.113281 L 71.269531 170.140625 C 71.464844 160.316406 77.039062 154.871094 86.800781 154.738281 C 98.113281 154.546875 109.460938 154.578125 120.808594 154.707031 C 130.761719 154.871094 136.242188 160.609375 136.402344 170.722656 C 136.433594 173.902344 136.433594 177.078125 136.402344 180.320312 L 136.402344 182.75 L 175.957031 182.75 L 175.957031 109.804688 C 175.933594 109.332031 175.988281 108.867188 176.117188 108.414062 C 176.246094 107.957031 176.445312 107.535156 176.710938 107.144531 C 176.976562 106.75 177.296875 106.410156 177.671875 106.125 C 178.046875 105.835938 178.460938 105.617188 178.90625 105.460938 C 179.746094 104.808594 180.695312 104.472656 181.757812 104.457031 L 238.496094 104.457031 L 238.496094 103.320312 C 238.464844 101.40625 238.464844 99.460938 238.464844 97.515625 C 238.179688 95.203125 238.191406 92.890625 238.496094 90.578125 C 238.601562 88.472656 239.054688 86.441406 239.855469 84.492188 C 240.65625 82.539062 241.761719 80.773438 243.164062 79.199219 C 244.539062 77.996094 246.085938 77.078125 247.800781 76.445312 C 249.515625 75.816406 251.289062 75.511719 253.117188 75.535156 C 265.089844 75.277344 277.058594 75.277344 289.019531 75.535156 Z M 289.019531 75.535156 " fill-opacity="1" fill-rule="nonzero"/></g><path fill="#2563eb" d="M 121.210938 164.953125 C 121.597656 164.890625 121.984375 164.871094 122.371094 164.902344 C 122.761719 164.929688 123.144531 165.003906 123.515625 165.121094 C 123.886719 165.242188 124.238281 165.402344 124.574219 165.605469 C 124.90625 165.808594 125.210938 166.046875 125.488281 166.324219 C 125.765625 166.597656 126.007812 166.902344 126.210938 167.234375 C 126.417969 167.566406 126.578125 167.917969 126.699219 168.289062 C 126.824219 168.660156 126.898438 169.042969 126.929688 169.429688 C 126.960938 169.820312 126.945312 170.207031 126.882812 170.59375 L 126.882812 204.734375 C 126.945312 205.117188 126.964844 205.507812 126.933594 205.898438 C 126.902344 206.285156 126.828125 206.667969 126.707031 207.039062 C 126.585938 207.410156 126.421875 207.765625 126.21875 208.097656 C 126.015625 208.429688 125.773438 208.734375 125.496094 209.011719 C 125.21875 209.285156 124.914062 209.527344 124.578125 209.726562 C 124.246094 209.929688 123.890625 210.09375 123.519531 210.210938 C 123.144531 210.328125 122.765625 210.402344 122.375 210.429688 C 121.984375 210.457031 121.597656 210.4375 121.210938 210.375 C 115.441406 210.308594 109.667969 210.375 103.867188 210.375 C 98.320312 210.375 92.746094 210.277344 87.167969 210.40625 C 82.890625 210.503906 80.75 208.785156 80.71875 204.441406 C 80.75 198.863281 80.71875 193.257812 80.71875 187.679688 C 80.71875 182.101562 80.75 176.496094 80.71875 170.886719 C 80.75 166.574219 82.890625 164.824219 87.167969 164.953125 C 92.746094 165.082031 98.320312 164.984375 103.867188 164.984375 C 109.667969 164.984375 115.441406 165.050781 121.210938 164.953125 Z M 121.210938 164.953125 " fill-opacity="1" fill-rule="nonzero"/><path fill="#60a5fa" d="M 254.136719 244.15625 C 265.449219 244.253906 276.753906 244.253906 288.046875 244.15625 C 292.132812 244.125 294.207031 245.777344 294.175781 249.960938 C 294.144531 261.46875 294.144531 272.988281 294.175781 284.519531 C 294.207031 288.703125 292.132812 290.386719 288.078125 290.324219 C 282.503906 290.195312 276.960938 290.292969 271.414062 290.292969 C 265.871094 290.292969 260.296875 290.128906 254.75 290.324219 C 250.148438 290.484375 247.910156 288.703125 247.976562 283.90625 C 248.105469 272.785156 248.074219 261.695312 247.976562 250.574219 C 247.941406 246.296875 249.597656 244.125 254.136719 244.15625 Z M 271.414062 164.984375 C 265.871094 164.984375 260.296875 165.148438 254.75 164.953125 C 250.210938 164.789062 248.007812 166.507812 247.976562 171.113281 C 248.039062 176.65625 248.074219 182.167969 248.074219 187.679688 C 248.074219 193.191406 248.039062 198.703125 247.976562 204.214844 C 248.007812 208.851562 250.210938 210.570312 254.75 210.40625 C 260.296875 210.210938 265.871094 210.339844 271.414062 210.339844 C 276.960938 210.339844 282.503906 210.277344 288.078125 210.375 C 292.132812 210.472656 294.207031 208.785156 294.175781 204.570312 C 294.144531 193.320312 294.144531 182.050781 294.175781 170.757812 C 294.207031 166.574219 292.132812 164.886719 288.078125 164.953125 C 282.492188 165.082031 276.960938 164.984375 271.414062 164.984375 Z M 271.414062 85.066406 C 265.871094 85.066406 260.296875 85.199219 254.75 85.003906 C 250.148438 84.875 247.910156 86.625 247.976562 91.453125 C 248.105469 102.542969 248.074219 113.664062 247.976562 124.75 C 247.941406 129.0625 249.597656 131.234375 254.136719 131.203125 C 265.449219 131.074219 276.765625 131.105469 288.046875 131.171875 C 292.132812 131.203125 294.207031 129.582031 294.175781 125.367188 C 294.144531 113.859375 294.144531 102.347656 294.175781 90.839844 C 294.207031 86.625 292.132812 84.96875 288.078125 85.035156 C 282.492188 85.132812 276.960938 85.066406 271.414062 85.066406 Z M 271.414062 85.066406 " fill-opacity="1" fill-rule="nonzero"/><g clip-path="url(#efa62911b7)"><path fill="#1f2937" d="M 253.128906 75.535156 C 251.300781 75.511719 249.53125 75.816406 247.816406 76.445312 C 246.097656 77.078125 244.554688 77.996094 243.175781 79.199219 C 241.773438 80.773438 240.671875 82.539062 239.871094 84.492188 C 239.070312 86.441406 238.617188 88.472656 238.507812 90.578125 C 238.203125 92.890625 238.191406 95.203125 238.476562 97.515625 C 238.476562 99.460938 238.476562 101.40625 238.507812 103.320312 L 238.507812 104.457031 L 181.773438 104.457031 C 180.710938 104.472656 179.757812 104.808594 178.917969 105.460938 C 178.472656 105.617188 178.0625 105.835938 177.683594 106.125 C 177.308594 106.410156 176.988281 106.75 176.722656 107.144531 C 176.457031 107.535156 176.257812 107.957031 176.128906 108.414062 C 176 108.867188 175.949219 109.332031 175.96875 109.804688 L 175.96875 182.75 L 136.414062 182.75 L 136.414062 180.320312 C 136.449219 177.078125 136.449219 173.902344 136.414062 170.722656 C 136.253906 160.609375 130.773438 154.871094 120.820312 154.707031 C 109.472656 154.578125 98.125 154.546875 86.8125 154.738281 C 77.054688 154.871094 71.476562 160.316406 71.28125 170.140625 L 71.28125 171.113281 C 71.28125 171.144531 71.25 171.144531 71.25 171.175781 C 71.25 172.667969 71.25 174.160156 71.21875 175.617188 C 71.144531 179.648438 71.105469 183.667969 71.105469 187.679688 C 71.105469 191.699219 71.140625 195.6875 71.203125 199.707031 C 71.238281 201.199219 71.238281 202.691406 71.238281 204.183594 L 71.269531 204.214844 L 71.269531 205.1875 C 71.464844 215.011719 77.039062 220.457031 86.800781 220.617188 C 98.113281 220.78125 109.449219 220.78125 120.808594 220.617188 C 130.761719 220.488281 136.242188 214.71875 136.402344 204.601562 C 136.433594 201.457031 136.433594 198.28125 136.402344 195.039062 L 136.402344 192.609375 L 175.957031 192.609375 L 175.957031 265.554688 C 175.9375 266.027344 175.992188 266.488281 176.121094 266.945312 C 176.253906 267.398438 176.449219 267.820312 176.714844 268.210938 C 176.980469 268.601562 177.300781 268.941406 177.675781 269.230469 C 178.050781 269.519531 178.460938 269.742188 178.90625 269.898438 C 179.75 270.542969 180.699219 270.867188 181.757812 270.871094 L 238.496094 270.871094 L 238.496094 272.007812 C 238.464844 273.953125 238.464844 275.894531 238.464844 277.839844 C 238.179688 280.144531 238.191406 282.445312 238.496094 284.746094 C 238.605469 286.859375 239.058594 288.894531 239.859375 290.851562 C 240.660156 292.808594 241.761719 294.578125 243.164062 296.160156 C 244.546875 297.351562 246.09375 298.261719 247.808594 298.886719 C 249.523438 299.511719 251.292969 299.8125 253.117188 299.789062 C 265.082031 300.082031 277.042969 300.050781 289.007812 299.789062 C 289.488281 299.816406 289.96875 299.8125 290.449219 299.789062 C 290.929688 299.761719 291.40625 299.710938 291.878906 299.636719 C 292.355469 299.5625 292.824219 299.460938 293.289062 299.335938 C 293.753906 299.210938 294.210938 299.0625 294.660156 298.890625 C 295.109375 298.71875 295.546875 298.527344 295.976562 298.308594 C 296.40625 298.089844 296.820312 297.851562 297.226562 297.589844 C 297.628906 297.332031 298.019531 297.050781 298.394531 296.75 C 298.769531 296.445312 299.128906 296.128906 299.46875 295.789062 C 299.808594 295.449219 300.132812 295.09375 300.4375 294.722656 C 300.742188 294.351562 301.027344 293.964844 301.292969 293.5625 C 301.554688 293.160156 301.796875 292.746094 302.019531 292.320312 C 302.242188 291.890625 302.4375 291.457031 302.617188 291.007812 C 302.792969 290.558594 302.941406 290.105469 303.070312 289.640625 C 303.199219 289.179688 303.304688 288.710938 303.382812 288.234375 C 303.464844 287.761719 303.519531 287.285156 303.546875 286.804688 C 303.578125 286.324219 303.582031 285.84375 303.5625 285.363281 C 303.886719 273.207031 303.921875 261.046875 303.53125 248.890625 C 303.546875 248.410156 303.539062 247.929688 303.503906 247.449219 C 303.46875 246.96875 303.40625 246.492188 303.324219 246.015625 C 303.238281 245.542969 303.128906 245.074219 302.996094 244.613281 C 302.863281 244.148438 302.703125 243.695312 302.523438 243.25 C 302.34375 242.800781 302.136719 242.367188 301.910156 241.941406 C 301.683594 241.515625 301.4375 241.105469 301.167969 240.707031 C 300.898438 240.308594 300.605469 239.925781 300.296875 239.554688 C 299.988281 239.1875 299.660156 238.835938 299.3125 238.5 C 298.964844 238.167969 298.605469 237.851562 298.222656 237.554688 C 297.84375 237.257812 297.449219 236.984375 297.042969 236.726562 C 296.632812 236.472656 296.214844 236.238281 295.78125 236.027344 C 295.347656 235.816406 294.90625 235.628906 294.453125 235.464844 C 294 235.296875 293.542969 235.15625 293.074219 235.039062 C 292.609375 234.921875 292.136719 234.832031 291.660156 234.761719 C 291.183594 234.695312 290.703125 234.652344 290.222656 234.636719 C 289.742188 234.617188 289.261719 234.625 288.78125 234.65625 C 277.011719 234.429688 265.273438 234.429688 253.507812 234.65625 C 253.003906 234.628906 252.5 234.632812 251.996094 234.65625 C 251.492188 234.683594 250.988281 234.738281 250.492188 234.816406 C 249.992188 234.898438 249.5 235.003906 249.011719 235.136719 C 248.527344 235.269531 248.046875 235.425781 247.578125 235.609375 C 247.105469 235.792969 246.648438 236 246.199219 236.230469 C 245.75 236.460938 245.316406 236.714844 244.894531 236.992188 C 244.472656 237.269531 244.066406 237.570312 243.675781 237.890625 C 243.285156 238.210938 242.914062 238.550781 242.5625 238.910156 C 242.207031 239.269531 241.875 239.648438 241.558594 240.042969 C 241.246094 240.4375 240.953125 240.851562 240.683594 241.277344 C 240.414062 241.703125 240.167969 242.140625 239.941406 242.59375 C 239.71875 243.046875 239.519531 243.507812 239.34375 243.984375 C 239.171875 244.457031 239.019531 244.9375 238.898438 245.425781 C 238.773438 245.914062 238.675781 246.410156 238.605469 246.910156 C 238.535156 247.410156 238.488281 247.910156 238.46875 248.414062 C 238.453125 248.921875 238.460938 249.425781 238.496094 249.925781 C 238.398438 253.71875 238.464844 257.480469 238.496094 261.144531 L 185.695312 261.144531 L 185.695312 192.609375 L 238.507812 192.609375 C 238.476562 194.359375 238.476562 196.140625 238.476562 197.890625 C 238.191406 200.171875 238.203125 202.453125 238.507812 204.734375 L 238.507812 205.347656 C 238.472656 205.851562 238.464844 206.355469 238.484375 206.859375 C 238.5 207.363281 238.546875 207.867188 238.617188 208.367188 C 238.6875 208.867188 238.785156 209.359375 238.910156 209.851562 C 239.035156 210.339844 239.183594 210.820312 239.359375 211.292969 C 239.53125 211.765625 239.730469 212.230469 239.957031 212.683594 C 240.179688 213.136719 240.425781 213.574219 240.695312 214 C 240.96875 214.425781 241.257812 214.835938 241.574219 215.234375 C 241.886719 215.628906 242.21875 216.003906 242.574219 216.363281 C 242.929688 216.726562 243.300781 217.066406 243.691406 217.386719 C 244.078125 217.707031 244.484375 218.003906 244.90625 218.28125 C 245.328125 218.558594 245.761719 218.816406 246.210938 219.046875 C 246.660156 219.277344 247.121094 219.484375 247.589844 219.667969 C 248.058594 219.851562 248.539062 220.007812 249.027344 220.140625 C 249.511719 220.273438 250.007812 220.378906 250.503906 220.457031 C 251.003906 220.539062 251.503906 220.589844 252.007812 220.617188 C 252.511719 220.644531 253.015625 220.644531 253.519531 220.617188 C 265.289062 220.847656 277.023438 220.847656 288.792969 220.617188 C 289.273438 220.652344 289.753906 220.660156 290.234375 220.640625 C 290.714844 220.625 291.195312 220.582031 291.671875 220.511719 C 292.148438 220.445312 292.621094 220.351562 293.085938 220.234375 C 293.554688 220.117188 294.015625 219.976562 294.46875 219.8125 C 294.917969 219.648438 295.363281 219.460938 295.792969 219.25 C 296.226562 219.035156 296.648438 218.804688 297.054688 218.546875 C 297.464844 218.292969 297.859375 218.015625 298.238281 217.722656 C 298.617188 217.425781 298.980469 217.109375 299.324219 216.773438 C 299.671875 216.441406 300 216.089844 300.308594 215.71875 C 300.621094 215.351562 300.910156 214.96875 301.179688 214.570312 C 301.449219 214.171875 301.699219 213.757812 301.925781 213.332031 C 302.152344 212.910156 302.355469 212.472656 302.535156 212.027344 C 302.71875 211.582031 302.875 211.128906 303.007812 210.664062 C 303.140625 210.203125 303.25 209.734375 303.335938 209.261719 C 303.421875 208.785156 303.480469 208.308594 303.515625 207.828125 C 303.550781 207.347656 303.558594 206.867188 303.542969 206.386719 C 303.574219 206.105469 303.582031 205.824219 303.578125 205.542969 L 303.578125 205.445312 C 303.640625 203.273438 303.640625 201.132812 303.675781 198.960938 C 303.738281 195.203125 303.835938 191.441406 303.835938 187.679688 C 303.835938 183.917969 303.738281 180.15625 303.675781 176.398438 C 303.640625 174.226562 303.640625 172.054688 303.578125 169.914062 L 303.578125 169.816406 C 303.582031 169.523438 303.570312 169.230469 303.542969 168.941406 C 303.558594 168.460938 303.550781 167.980469 303.515625 167.5 C 303.480469 167.019531 303.417969 166.542969 303.335938 166.070312 C 303.25 165.597656 303.140625 165.128906 303.007812 164.667969 C 302.871094 164.203125 302.714844 163.75 302.535156 163.304688 C 302.351562 162.859375 302.148438 162.425781 301.921875 162 C 301.695312 161.574219 301.445312 161.164062 301.175781 160.765625 C 300.90625 160.367188 300.617188 159.984375 300.308594 159.617188 C 299.996094 159.25 299.667969 158.898438 299.324219 158.5625 C 298.976562 158.230469 298.613281 157.914062 298.234375 157.621094 C 297.855469 157.324219 297.460938 157.050781 297.050781 156.796875 C 296.644531 156.539062 296.222656 156.308594 295.789062 156.097656 C 295.359375 155.886719 294.914062 155.699219 294.464844 155.535156 C 294.011719 155.371094 293.550781 155.230469 293.085938 155.113281 C 292.617188 155 292.144531 154.90625 291.671875 154.839844 C 291.195312 154.773438 290.714844 154.730469 290.234375 154.714844 C 289.753906 154.699219 289.273438 154.707031 288.792969 154.738281 C 277.023438 154.511719 265.289062 154.511719 253.519531 154.738281 C 253.015625 154.714844 252.511719 154.714844 252.007812 154.742188 C 251.503906 154.765625 251.003906 154.820312 250.503906 154.902344 C 250.007812 154.980469 249.511719 155.085938 249.027344 155.21875 C 248.539062 155.351562 248.058594 155.507812 247.589844 155.691406 C 247.121094 155.875 246.660156 156.082031 246.210938 156.3125 C 245.761719 156.542969 245.328125 156.796875 244.90625 157.078125 C 244.484375 157.355469 244.078125 157.652344 243.691406 157.972656 C 243.300781 158.292969 242.929688 158.632812 242.574219 158.992188 C 242.21875 159.355469 241.886719 159.730469 241.574219 160.125 C 241.257812 160.523438 240.96875 160.933594 240.695312 161.359375 C 240.425781 161.785156 240.179688 162.222656 239.957031 162.675781 C 239.730469 163.128906 239.53125 163.59375 239.359375 164.066406 C 239.183594 164.539062 239.035156 165.019531 238.910156 165.507812 C 238.785156 166 238.6875 166.492188 238.617188 166.992188 C 238.546875 167.492188 238.5 167.996094 238.484375 168.5 C 238.464844 169.003906 238.472656 169.507812 238.507812 170.011719 L 238.507812 170.640625 C 238.203125 172.90625 238.191406 175.175781 238.476562 177.449219 C 238.476562 179.230469 238.476562 180.980469 238.507812 182.765625 L 185.695312 182.765625 L 185.695312 114.195312 L 238.507812 114.195312 C 238.476562 117.890625 238.410156 121.652344 238.507812 125.414062 C 238.472656 125.917969 238.464844 126.421875 238.484375 126.925781 C 238.5 127.429688 238.546875 127.933594 238.617188 128.433594 C 238.6875 128.933594 238.785156 129.425781 238.910156 129.917969 C 239.03125 130.40625 239.179688 130.886719 239.355469 131.363281 C 239.53125 131.835938 239.730469 132.300781 239.953125 132.753906 C 240.175781 133.207031 240.425781 133.644531 240.695312 134.074219 C 240.964844 134.5 241.257812 134.910156 241.570312 135.304688 C 241.882812 135.703125 242.21875 136.082031 242.570312 136.441406 C 242.925781 136.800781 243.296875 137.140625 243.6875 137.464844 C 244.074219 137.785156 244.480469 138.085938 244.902344 138.363281 C 245.324219 138.640625 245.757812 138.898438 246.207031 139.128906 C 246.65625 139.359375 247.117188 139.570312 247.585938 139.753906 C 248.058594 139.9375 248.535156 140.09375 249.023438 140.226562 C 249.511719 140.359375 250.003906 140.46875 250.503906 140.546875 C 251 140.628906 251.503906 140.683594 252.007812 140.710938 C 252.511719 140.738281 253.015625 140.742188 253.519531 140.714844 C 265.289062 140.910156 277.023438 140.910156 288.792969 140.683594 C 289.273438 140.714844 289.753906 140.722656 290.234375 140.707031 C 290.714844 140.691406 291.195312 140.648438 291.671875 140.582031 C 292.144531 140.515625 292.617188 140.421875 293.085938 140.308594 C 293.550781 140.191406 294.011719 140.050781 294.464844 139.886719 C 294.914062 139.722656 295.359375 139.535156 295.789062 139.324219 C 296.222656 139.113281 296.644531 138.882812 297.050781 138.628906 C 297.460938 138.375 297.855469 138.097656 298.234375 137.800781 C 298.613281 137.507812 298.976562 137.191406 299.324219 136.859375 C 299.667969 136.523438 299.996094 136.175781 300.308594 135.804688 C 300.617188 135.4375 300.90625 135.054688 301.175781 134.65625 C 301.445312 134.257812 301.695312 133.847656 301.921875 133.421875 C 302.148438 133 302.351562 132.5625 302.535156 132.117188 C 302.714844 131.671875 302.871094 131.21875 303.007812 130.757812 C 303.140625 130.292969 303.25 129.828125 303.335938 129.351562 C 303.417969 128.878906 303.480469 128.402344 303.515625 127.921875 C 303.550781 127.441406 303.558594 126.964844 303.542969 126.480469 C 303.933594 114.324219 303.902344 102.132812 303.578125 89.976562 C 303.597656 89.496094 303.589844 89.015625 303.558594 88.535156 C 303.53125 88.058594 303.472656 87.578125 303.394531 87.105469 C 303.3125 86.632812 303.210938 86.164062 303.082031 85.699219 C 302.953125 85.238281 302.800781 84.78125 302.625 84.335938 C 302.445312 83.886719 302.25 83.449219 302.027344 83.023438 C 301.804688 82.597656 301.5625 82.183594 301.296875 81.78125 C 301.035156 81.378906 300.75 80.992188 300.445312 80.621094 C 300.140625 80.25 299.816406 79.894531 299.476562 79.558594 C 299.132812 79.21875 298.777344 78.898438 298.402344 78.597656 C 298.027344 78.296875 297.636719 78.015625 297.234375 77.753906 C 296.832031 77.492188 296.414062 77.253906 295.984375 77.035156 C 295.558594 76.820312 295.117188 76.625 294.671875 76.453125 C 294.222656 76.28125 293.765625 76.132812 293.300781 76.007812 C 292.835938 75.882812 292.367188 75.78125 291.890625 75.707031 C 291.417969 75.632812 290.941406 75.578125 290.460938 75.554688 C 289.980469 75.527344 289.5 75.527344 289.019531 75.550781 C 277.058594 75.28125 265.09375 75.277344 253.128906 75.535156 Z M 247.976562 250.574219 C 247.941406 246.296875 249.597656 244.125 254.136719 244.15625 C 265.449219 244.253906 276.753906 244.253906 288.046875 244.15625 C 292.132812 244.125 294.207031 245.777344 294.175781 249.960938 C 294.144531 261.46875 294.144531 272.988281 294.175781 284.519531 C 294.207031 288.703125 292.132812 290.386719 288.078125 290.324219 C 282.503906 290.195312 276.960938 290.292969 271.414062 290.292969 C 265.871094 290.292969 260.296875 290.128906 254.75 290.324219 C 250.148438 290.484375 247.910156 288.703125 247.976562 283.90625 C 248.105469 272.785156 248.074219 261.695312 247.976562 250.574219 Z M 247.976562 171.113281 C 248.007812 166.507812 250.210938 164.789062 254.75 164.953125 C 260.296875 165.148438 265.871094 164.984375 271.414062 164.984375 C 276.960938 164.984375 282.503906 165.082031 288.078125 164.953125 C 292.132812 164.886719 294.207031 166.574219 294.175781 170.757812 C 294.144531 182.039062 294.144531 193.308594 294.175781 204.570312 C 294.207031 208.785156 292.132812 210.472656 288.078125 210.375 C 282.503906 210.277344 276.960938 210.339844 271.414062 210.339844 C 265.871094 210.339844 260.296875 210.210938 254.75 210.40625 C 250.210938 210.570312 248.007812 208.851562 247.976562 204.214844 C 248.039062 198.703125 248.074219 193.191406 248.074219 187.679688 C 248.074219 182.167969 248.039062 176.65625 247.976562 171.113281 Z M 126.871094 204.734375 C 126.933594 205.117188 126.949219 205.507812 126.921875 205.898438 C 126.890625 206.285156 126.816406 206.667969 126.695312 207.039062 C 126.574219 207.410156 126.410156 207.765625 126.207031 208.097656 C 126 208.429688 125.761719 208.734375 125.484375 209.011719 C 125.207031 209.285156 124.898438 209.527344 124.566406 209.726562 C 124.230469 209.929688 123.878906 210.09375 123.503906 210.210938 C 123.132812 210.328125 122.75 210.402344 122.359375 210.429688 C 121.972656 210.457031 121.582031 210.4375 121.199219 210.375 C 115.425781 210.308594 109.65625 210.375 103.851562 210.375 C 98.308594 210.375 92.730469 210.277344 87.15625 210.40625 C 82.875 210.503906 80.734375 208.785156 80.703125 204.441406 C 80.734375 198.863281 80.703125 193.257812 80.703125 187.679688 C 80.703125 182.101562 80.734375 176.496094 80.703125 170.886719 C 80.734375 166.574219 82.875 164.824219 87.15625 164.953125 C 92.730469 165.082031 98.308594 164.984375 103.851562 164.984375 C 109.65625 164.984375 115.425781 165.050781 121.199219 164.953125 C 121.582031 164.890625 121.96875 164.871094 122.359375 164.902344 C 122.75 164.929688 123.128906 165.003906 123.5 165.121094 C 123.875 165.242188 124.226562 165.402344 124.558594 165.605469 C 124.894531 165.808594 125.199219 166.046875 125.476562 166.324219 C 125.753906 166.597656 125.996094 166.902344 126.199219 167.234375 C 126.402344 167.566406 126.566406 167.917969 126.6875 168.289062 C 126.808594 168.660156 126.886719 169.042969 126.917969 169.429688 C 126.945312 169.820312 126.933594 170.207031 126.871094 170.59375 Z M 271.402344 85.066406 C 276.945312 85.066406 282.492188 85.132812 288.066406 85.035156 C 292.121094 84.96875 294.195312 86.625 294.160156 90.839844 C 294.128906 102.347656 294.128906 113.859375 294.160156 125.367188 C 294.195312 129.582031 292.121094 131.203125 288.035156 131.171875 C 276.753906 131.105469 265.4375 131.074219 254.121094 131.203125 C 249.582031 131.234375 247.929688 129.0625 247.960938 124.75 C 248.058594 113.664062 248.09375 102.542969 247.960938 91.453125 C 247.898438 86.625 250.132812 84.875 254.738281 85.003906 C 260.296875 85.199219 265.871094 85.066406 271.414062 85.066406 Z M 271.402344 85.066406 " fill-opacity="1" fill-rule="nonzero"/></g></svg>